<svg width="442" height="518" viewBox="0 0 442 518" fill="none" xmlns="http://www.w3.org/2000/svg">
<rect width="442" height="518" fill="white"/>
<rect x="36" y="330" width="371" height="153" fill="#A6A6A6"/>
<rect x="35.5951" y="227.2" width="371.81" height="103.147" fill="white"/>
<rect x="384.616" y="227.8" width="22.7883" height="102.548" fill="black"/>
<rect x="134.544" y="227.8" width="22.7883" height="102.548" fill="black"/>
<rect x="35.5951" y="227.8" width="22.7883" height="102.548" fill="black"/>
<rect x="21" y="46.49" width="401" height="139.534" fill="black" stroke="black" stroke-width="10"/>
<rect x="35.5951" y="181.024" width="371.81" height="46.7761" fill="black"/>
<rect x="35.5951" y="330.347" width="371.81" height="22.1886" fill="black"/>
<rect x="35.5951" y="349" width="371.81" height="22.1886" fill="black"/>
<rect x="165.729" y="241.593" width="45.5767" height="88.7546" fill="#A6A6A6"/>
<rect x="75.1749" y="241.593" width="25.7868" height="38.9801" fill="#A6A6A6"/>
<rect x="242.489" y="241.593" width="25.7868" height="62.3681" fill="#A6A6A6"/>
<rect x="331.244" y="241.593" width="25.7868" height="62.3681" fill="#A6A6A6"/>
<rect x="273.673" y="241.593" width="52.1733" height="62.3681" fill="#A6A6A6"/>
<path d="M320.052 121.856H122.348V104.25L124.236 102.749L218.087 28.0869L221.2 25.6104L224.313 28.0869L318.164 102.749L320.052 104.25V121.856Z" fill="white" stroke="black" stroke-width="10"/>
<rect x="285.667" y="227.8" width="22.7883" height="102.548" fill="black"/>
<rect x="142.341" y="106.662" width="158.319" height="74.362" fill="white"/>
<rect x="245.488" y="120.455" width="36.5813" height="50.3742" fill="#A6A6A6"/>
<rect x="203.509" y="120.455" width="36.5813" height="50.3742" fill="#A6A6A6"/>
<rect x="161.531" y="120.455" width="36.5813" height="50.3742" fill="#A6A6A6"/>
</svg>
